<?xml version="1.0" encoding="UTF-8" standalone="no"?>
<svg xmlns:dc="http://purl.org/dc/elements/1.1/" xmlns:cc="http://creativecommons.org/ns#" xmlns:rdf="http://www.w3.org/1999/02/22-rdf-syntax-ns#" xmlns:svg="http://www.w3.org/2000/svg" xmlns="http://www.w3.org/2000/svg" xmlns:sodipodi="http://sodipodi.sourceforge.net/DTD/sodipodi-0.dtd" xmlns:inkscape="http://www.inkscape.org/namespaces/inkscape" viewBox="177.6 89.1 186 171.55" preserveAspectRatio="xMidYMid" width="100%" height="100%" id="svg2" version="1.1" inkscape:version="0.48.1 " sodipodi:docname="PMAA polymer.svg">
  <metadata id="metadata97">
    <rdf:RDF>
      <cc:Work rdf:about="">
        <dc:format>image/svg+xml</dc:format>
        <dc:type rdf:resource="http://purl.org/dc/dcmitype/StillImage"/>
      </cc:Work>
    </rdf:RDF>
  </metadata>
  <defs id="defs95"/>
  <sodipodi:namedview pagecolor="#ffffff" bordercolor="#666666" borderopacity="1" objecttolerance="10" gridtolerance="10" guidetolerance="10" inkscape:pageopacity="0" inkscape:pageshadow="2" inkscape:window-width="640" inkscape:window-height="480" id="namedview93" showgrid="false" inkscape:zoom="1.5039347" inkscape:cx="93" inkscape:cy="85.775" inkscape:window-x="0" inkscape:window-y="0" inkscape:window-maximized="0" inkscape:current-layer="svg2"/>
  <clipPath id="52">
    <rect x="1.2" y="1.2" width="537.6" height="717.35" id="rect5"/>
  </clipPath>
  <g id="drawing" transform="matrix(0.96782633,0,0,0.96782633,7.7140432,6.8666736)">
    <path style="fill:#ffffff;fill-opacity:0" d="m 177.60001,89.099998 186,0 0,171.550002 -186,0 z" id="rect8" inkscape:connector-curvature="0"/>
    <g id="page" clip-path="url(#52)">
      <g id="g11">
        <g style="text-anchor:start" id="text13">
          <path d="m 239.76781,177.16046 1.89453,0.47852 c -0.39715,1.55599 -1.11167,2.74251 -2.14356,3.55957 -1.03191,0.81705 -2.2933,1.22558 -3.78418,1.22558 -1.54297,0 -2.79785,-0.31412 -3.76464,-0.94238 -0.9668,-0.62825 -1.70248,-1.53808 -2.20704,-2.72949 -0.50455,-1.1914 -0.75683,-2.4707 -0.75683,-3.83789 0,-1.49088 0.28483,-2.79133 0.85449,-3.90137 0.56966,-1.11001 1.38021,-1.95311 2.43164,-2.5293 1.05143,-0.57615 2.20865,-0.86424 3.47168,-0.86425 1.43228,1e-5 2.63671,0.36459 3.61328,1.09375 0.97655,0.72918 1.65689,1.75456 2.04102,3.07617 l -1.86524,0.43945 c -0.33204,-1.04165 -0.81381,-1.80012 -1.44531,-2.27539 -0.63152,-0.47525 -1.42579,-0.71288 -2.38281,-0.71289 -1.10027,1e-5 -2.01986,0.26368 -2.75879,0.79102 -0.73894,0.52735 -1.25814,1.23536 -1.55762,2.12402 -0.29948,0.88868 -0.44922,1.80502 -0.44922,2.74902 0,1.21746 0.17741,2.28028 0.53223,3.18848 0.35481,0.9082 0.90657,1.58692 1.65527,2.03613 0.7487,0.44922 1.55924,0.67383 2.43164,0.67383 1.06119,0 1.95963,-0.30599 2.69532,-0.91797 0.73566,-0.61198 1.23371,-1.52018 1.49414,-2.72461 z" style="font-size:20px;fill:#000000;font-family:Arial" id="path3076" inkscape:connector-curvature="0"/>
        </g>
      </g>
      <g id="g17">
        <g style="text-anchor:start" id="text19">
          <path d="m 229.61156,124.33 0,-14.3164 1.89453,0 0,5.8789 7.4414,0 0,-5.8789 1.89454,0 0,14.3164 -1.89454,0 0,-6.74805 -7.4414,0 0,6.74805 z" style="font-size:20px;fill:#000000;font-family:Arial" id="path3079" inkscape:connector-curvature="0"/>
        </g>
      </g>
      <g id="Solid">
        <path d="m 236.4,161.3 0,0 -1.2,0 -1.2,0 0,-30.5 1.2,0 1.2,0 z" shape-rendering="geometricPrecision" id="path24" inkscape:connector-curvature="0" style="fill:#000000;fill-rule:evenodd;stroke:#000000;stroke-width:0;stroke-linejoin:miter"/>
      </g>
      <g id="g26">
        <g style="text-anchor:start" id="text28">
          <path d="m 229.61156,239.53 0,-14.31641 1.89453,0 0,5.87891 7.4414,0 0,-5.87891 1.89454,0 0,14.31641 -1.89454,0 0,-6.74805 -7.4414,0 0,6.74805 z" style="font-size:20px;fill:#000000;font-family:Arial" id="path3082" inkscape:connector-curvature="0"/>
        </g>
      </g>
      <g id="g32">
        <path d="m 234,188.9 0,0 1.2,0 1.2,0 0,30 -1.2,0 -1.2,0 z" shape-rendering="geometricPrecision" id="path34" inkscape:connector-curvature="0" style="fill:#000000;fill-rule:evenodd;stroke:#000000;stroke-width:0;stroke-linejoin:miter"/>
      </g>
      <g id="g36">
        <path d="m 222.7,173.56 0,0 0,1.2 0,1.2 -45.1,0 0,-1.2 0,-1.2 z" shape-rendering="geometricPrecision" id="path38" inkscape:connector-curvature="0" style="fill:#000000;fill-rule:evenodd;stroke:#000000;stroke-width:0;stroke-linejoin:miter"/>
      </g>
      <g id="g40">
        <g style="text-anchor:start" id="text42">
          <path d="m 297.3678,177.16046 1.89453,0.47852 c -0.39715,1.55599 -1.11167,2.74251 -2.14356,3.55957 -1.03191,0.81705 -2.2933,1.22558 -3.78418,1.22558 -1.54297,0 -2.79785,-0.31412 -3.76464,-0.94238 -0.9668,-0.62825 -1.70248,-1.53808 -2.20703,-2.72949 -0.50456,-1.1914 -0.75684,-2.4707 -0.75684,-3.83789 0,-1.49088 0.28483,-2.79133 0.85449,-3.90137 0.56966,-1.11001 1.38021,-1.95311 2.43164,-2.5293 1.05143,-0.57615 2.20865,-0.86424 3.47168,-0.86425 1.43228,1e-5 2.63671,0.36459 3.61328,1.09375 0.97655,0.72918 1.65689,1.75456 2.04102,3.07617 l -1.86524,0.43945 c -0.33204,-1.04165 -0.81381,-1.80012 -1.44531,-2.27539 -0.63152,-0.47525 -1.42579,-0.71288 -2.38281,-0.71289 -1.10027,1e-5 -2.01986,0.26368 -2.75879,0.79102 -0.73894,0.52735 -1.25814,1.23536 -1.55762,2.12402 -0.29948,0.88868 -0.44922,1.80502 -0.44922,2.74902 0,1.21746 0.17741,2.28028 0.53223,3.18848 0.35481,0.9082 0.90657,1.58692 1.65527,2.03613 0.7487,0.44922 1.55924,0.67383 2.43164,0.67383 1.06119,0 1.95963,-0.30599 2.69532,-0.91797 0.73566,-0.61198 1.23371,-1.52018 1.49414,-2.72461 z" style="font-size:20px;fill:#000000;font-family:Arial" id="path3085" inkscape:connector-curvature="0"/>
        </g>
      </g>
      <g id="g46">
        <path d="m 248,175.96 0,0 0,-1.2 0,-1.2 32.3,0 0,1.2 0,1.2 z" shape-rendering="geometricPrecision" id="path48" inkscape:connector-curvature="0" style="fill:#000000;fill-rule:evenodd;stroke:#000000;stroke-width:0;stroke-linejoin:miter"/>
      </g>
      <g id="g50">
        <g style="text-anchor:start" id="text52">
          <path d="m 297.3678,119.56047 1.89453,0.47852 c -0.39715,1.55599 -1.11167,2.74251 -2.14356,3.55957 -1.03191,0.81705 -2.2933,1.22558 -3.78418,1.22558 -1.54297,0 -2.79785,-0.31413 -3.76464,-0.94238 -0.9668,-0.62825 -1.70248,-1.53808 -2.20703,-2.72949 -0.50456,-1.1914 -0.75684,-2.4707 -0.75684,-3.83789 0,-1.49088 0.28483,-2.79133 0.85449,-3.90137 0.56966,-1.11001 1.38021,-1.95311 2.43164,-2.5293 1.05143,-0.57615 2.20865,-0.86424 3.47168,-0.86426 1.43228,2e-5 2.63671,0.3646 3.61328,1.09375 0.97655,0.72918 1.65689,1.75457 2.04102,3.07618 l -1.86524,0.43945 c -0.33204,-1.04166 -0.81381,-1.80012 -1.44531,-2.27539 -0.63152,-0.47525 -1.42579,-0.71288 -2.38281,-0.71289 -1.10027,10e-6 -2.01986,0.26368 -2.75879,0.79101 -0.73894,0.52736 -1.25814,1.23537 -1.55762,2.12403 -0.29948,0.88868 -0.44922,1.80502 -0.44922,2.74902 0,1.21746 0.17741,2.28028 0.53223,3.18848 0.35481,0.9082 0.90657,1.58691 1.65527,2.03613 0.7487,0.44922 1.55924,0.67383 2.43164,0.67383 1.06119,0 1.95963,-0.30599 2.69532,-0.91797 0.73566,-0.61198 1.23371,-1.52018 1.49414,-2.72461 z" style="font-size:20px;fill:#000000;font-family:Arial" id="path3088" inkscape:connector-curvature="0"/>
          <path d="m 301.02991,117.60735 c 0,-2.3763 0.63802,-4.23665 1.91406,-5.58106 1.27604,-1.34439 2.92317,-2.01659 4.94141,-2.0166 1.3216,10e-6 2.51301,0.31577 3.57421,0.94726 1.06119,0.63153 1.87011,1.51206 2.42676,2.64161 0.55663,1.12956 0.83495,2.41049 0.83496,3.84277 -1e-5,1.45183 -0.29298,2.75066 -0.8789,3.89648 -0.58595,1.14584 -1.41603,2.01335 -2.49024,2.60254 -1.07423,0.5892 -2.23308,0.88379 -3.47656,0.88379 -1.34766,0 -2.55209,-0.32552 -3.61328,-0.97656 -1.0612,-0.65104 -1.86524,-1.53971 -2.41211,-2.66602 -0.54688,-1.12629 -0.82031,-2.3177 -0.82031,-3.57421 z m 1.95312,0.0293 c 0,1.72527 0.46387,3.08432 1.3916,4.07715 0.92773,0.99284 2.09147,1.48926 3.49121,1.48926 1.42578,0 2.59928,-0.5013 3.52051,-1.50391 0.92121,-1.0026 1.38183,-2.42512 1.38184,-4.26758 -1e-5,-1.16535 -0.19695,-2.1826 -0.59082,-3.05175 -0.39389,-0.86913 -0.97007,-1.54296 -1.72852,-2.02149 -0.75847,-0.4785 -1.60971,-0.71776 -2.55371,-0.71777 -1.34115,1e-5 -2.49512,0.46062 -3.46191,1.38183 -0.9668,0.92124 -1.4502,2.45932 -1.4502,4.61426 z" style="font-size:20px;fill:#000000;font-family:Arial" id="path3090" inkscape:connector-curvature="0"/>
          <path d="m 323.16125,127.84291 0,1.26709 -7.09716,0 c -0.01,-0.31738 0.0415,-0.62256 0.15381,-0.91553 0.18066,-0.48339 0.46997,-0.95947 0.86792,-1.42822 0.39794,-0.46875 0.97289,-1.01074 1.72485,-1.62597 1.16699,-0.95703 1.95556,-1.71509 2.36572,-2.27417 0.41015,-0.55908 0.61523,-1.08764 0.61524,-1.5857 -10e-6,-0.52245 -0.18678,-0.96312 -0.56031,-1.32202 -0.37354,-0.35888 -0.8606,-0.53832 -1.46118,-0.53833 -0.63477,10e-6 -1.14258,0.19044 -1.52344,0.57129 -0.38086,0.38087 -0.57373,0.90821 -0.57861,1.58203 l -1.35498,-0.13916 c 0.0928,-1.01073 0.44189,-1.781 1.04736,-2.31079 0.60547,-0.52977 1.41846,-0.79467 2.43897,-0.79468 1.03027,1e-5 1.8457,0.28566 2.44629,0.85694 0.60058,0.57129 0.90087,1.2793 0.90088,2.12402 -1e-5,0.42969 -0.0879,0.85206 -0.26368,1.26709 -0.17578,0.41504 -0.46753,0.85206 -0.87524,1.31103 -0.40772,0.45899 -1.08521,1.08888 -2.03247,1.88965 -0.79102,0.66407 -1.29883,1.11451 -1.52344,1.35132 -0.22461,0.23682 -0.41016,0.47486 -0.55664,0.71411 z" style="font-size:15px;fill:#000000;font-family:Arial" id="path3092" inkscape:connector-curvature="0"/>
          <path d="m 325.56116,124.58 0,-14.3164 1.89453,0 0,5.8789 7.4414,0 0,-5.8789 1.89454,0 0,14.3164 -1.89454,0 0,-6.74805 -7.4414,0 0,6.74805 z" style="font-size:20px;fill:#000000;font-family:Arial" id="path3094" inkscape:connector-curvature="0"/>
        </g>
      </g>
      <g id="g60">
        <path d="m 294,161.3 0,0 -1.2,0 -1.2,0 0,-30 1.2,0 1.2,0 z" shape-rendering="geometricPrecision" id="path62" inkscape:connector-curvature="0" style="fill:#000000;fill-rule:evenodd;stroke:#000000;stroke-width:0;stroke-linejoin:miter"/>
      </g>
      <g id="g64">
        <g style="text-anchor:start" id="text66">
          <path d="m 297.3678,234.76047 1.89453,0.47851 c -0.39715,1.556 -1.11167,2.74252 -2.14356,3.55957 -1.03191,0.81706 -2.2933,1.22559 -3.78418,1.22559 -1.54297,0 -2.79785,-0.31413 -3.76464,-0.94238 -0.9668,-0.62826 -1.70248,-1.53809 -2.20703,-2.7295 -0.50456,-1.1914 -0.75684,-2.47069 -0.75684,-3.83789 0,-1.49087 0.28483,-2.79133 0.85449,-3.90136 0.56966,-1.11002 1.38021,-1.95312 2.43164,-2.5293 1.05143,-0.57616 2.20865,-0.86424 3.47168,-0.86426 1.43228,2e-5 2.63671,0.3646 3.61328,1.09375 0.97655,0.72918 1.65689,1.75457 2.04102,3.07617 l -1.86524,0.43946 c -0.33204,-1.04166 -0.81381,-1.80012 -1.44531,-2.27539 -0.63152,-0.47525 -1.42579,-0.71288 -2.38281,-0.71289 -1.10027,1e-5 -2.01986,0.26368 -2.75879,0.79101 -0.73894,0.52736 -1.25814,1.23536 -1.55762,2.12402 -0.29948,0.88869 -0.44922,1.80503 -0.44922,2.74903 0,1.21745 0.17741,2.28028 0.53223,3.18847 0.35481,0.90821 0.90657,1.58692 1.65527,2.03614 0.7487,0.44922 1.55924,0.67383 2.43164,0.67383 1.06119,0 1.95963,-0.30599 2.69532,-0.91797 0.73566,-0.61198 1.23371,-1.52018 1.49414,-2.72461 z" style="font-size:20px;fill:#000000;font-family:Arial" id="path3097" inkscape:connector-curvature="0"/>
          <path d="m 301.66467,239.78 0,-14.31641 1.89453,0 0,5.87891 7.44141,0 0,-5.87891 1.89453,0 0,14.31641 -1.89453,0 0,-6.74805 -7.44141,0 0,6.74805 z" style="font-size:20px;fill:#000000;font-family:Arial" id="path3099" inkscape:connector-curvature="0"/>
          <path d="m 315.14612,241.47553 1.31836,-0.17578 c 0.15136,0.74707 0.40893,1.2854 0.7727,1.61499 0.36377,0.32959 0.80688,0.49438 1.32935,0.49438 0.62011,0 1.14379,-0.21484 1.57104,-0.64453 0.42724,-0.42969 0.64087,-0.96191 0.64087,-1.59668 0,-0.60547 -0.19776,-1.10473 -0.59326,-1.4978 -0.39551,-0.39306 -0.89844,-0.5896 -1.50879,-0.5896 -0.24903,0 -0.55908,0.0488 -0.93017,0.14648 l 0.14648,-1.15723 c 0.0879,0.01 0.15869,0.0147 0.2124,0.0146 0.56152,1e-5 1.06689,-0.14647 1.51612,-0.43945 0.44921,-0.29296 0.67382,-0.74462 0.67382,-1.35498 0,-0.48339 -0.16358,-0.88378 -0.49072,-1.20117 -0.32715,-0.31738 -0.74951,-0.47607 -1.26709,-0.47608 -0.5127,10e-6 -0.93994,0.16115 -1.28174,0.4834 -0.3418,0.32228 -0.56152,0.80567 -0.65918,1.4502 l -1.31836,-0.23438 c 0.16114,-0.88378 0.52735,-1.56859 1.09864,-2.05444 0.57128,-0.48583 1.28173,-0.72875 2.13134,-0.72876 0.58594,1e-5 1.12549,0.12574 1.61866,0.3772 0.49315,0.25147 0.87035,0.59449 1.13159,1.02905 0.26122,0.43458 0.39184,0.896 0.39184,1.38428 0,0.46387 -0.12451,0.88623 -0.37353,1.26709 -0.24903,0.38086 -0.61768,0.6836 -1.10596,0.9082 0.63476,0.14649 1.12793,0.45044 1.47949,0.91186 0.35156,0.46143 0.52734,1.03883 0.52735,1.73218 -10e-6,0.9375 -0.34181,1.73218 -1.02539,2.38404 -0.6836,0.65185 -1.54786,0.97778 -2.59278,0.97778 -0.94238,0 -1.72485,-0.28076 -2.34741,-0.84229 -0.62256,-0.56152 -0.97778,-1.28906 -1.06567,-2.18261 z" style="font-size:15px;fill:#000000;font-family:Arial" id="path3101" inkscape:connector-curvature="0"/>
        </g>
      </g>
      <g id="g72">
        <path d="m 291.6,188.9 0,0 1.2,0 1.2,0 0,30 -1.2,0 -1.2,0 z" shape-rendering="geometricPrecision" id="path74" inkscape:connector-curvature="0" style="fill:#000000;fill-rule:evenodd;stroke:#000000;stroke-width:0;stroke-linejoin:miter"/>
      </g>
      <g id="g76">
        <path d="m 305.7,175.96 0,0 0,-1.2 0,-1.2 52.95,0 0,1.2 0,1.2 z" shape-rendering="geometricPrecision" id="path78" inkscape:connector-curvature="0" style="fill:#000000;fill-rule:evenodd;stroke:#000000;stroke-width:0;stroke-linejoin:miter"/>
      </g>
      <g id="Bracket">
        <path d="m 331.91,91.5 11.59,0 0,158.25 -11.59,0" shape-rendering="geometricPrecision" id="path81" inkscape:connector-curvature="0" style="fill:none;stroke:#000000;stroke-width:2.4000001;stroke-linejoin:miter"/>
      </g>
      <g id="g83">
        <path d="m 209.59,249.75 -11.59,0 0,-158.25 11.59,0" shape-rendering="geometricPrecision" id="path85" inkscape:connector-curvature="0" style="fill:none;stroke:#000000;stroke-width:2.4000001;stroke-linejoin:miter"/>
      </g>
      <g id="g87">
        <g style="text-anchor:start" id="text89">
          <path d="m 353.81836,255.75 0,-10.37109 1.58203,0 0,1.47461 c 0.76172,-1.13932 1.86198,-1.70898 3.30078,-1.70899 0.625,1e-5 1.19954,0.11232 1.72363,0.33692 0.52408,0.22461 0.91634,0.51921 1.17676,0.88378 0.26041,0.3646 0.4427,0.79754 0.54688,1.29883 0.0651,0.32553 0.0976,0.89519 0.0976,1.70899 l 0,6.37695 -1.75781,0 0,-6.30859 c -10e-6,-0.71614 -0.0684,-1.25162 -0.20508,-1.60645 -0.13672,-0.35481 -0.37924,-0.63801 -0.72754,-0.84961 -0.34831,-0.21158 -0.75684,-0.31737 -1.22558,-0.31738 -0.7487,1e-5 -1.39486,0.23764 -1.93848,0.71289 -0.54362,0.47527 -0.81543,1.37696 -0.81543,2.70508 l 0,5.66406 z" style="font-size:20px;fill:#000000;font-family:Arial" id="path3104" inkscape:connector-curvature="0"/>
        </g>
      </g>
    </g>
  </g>
</svg>